<!-- Generator: Adobe Illustrator 25.2.1, SVG Export Plug-In  -->
<svg version="1.1" xmlns="http://www.w3.org/2000/svg" xmlns:xlink="http://www.w3.org/1999/xlink" x="0px" y="0px" width="38px"
	 height="50px" viewBox="0 0 38 50" style="overflow:visible;enable-background:new 0 0 38 50;" xml:space="preserve">
<style type="text/css">
	.st0{fill:#2379A4;}
</style>
<defs>
</defs>
<g transform="translate(0,-952.36218)">
	<path class="st0" d="M19,952.4c-0.4,0-1,0.2-1.3,0.5l-17,15c-0.9,0.7-0.9,2-0.2,2.8c0.7,0.8,2,0.9,2.8,0.2L17,958.8v41.6
		c0,1.1,0.9,2,2,2s2-0.9,2-2v-41.6l13.7,12.1c0.8,0.8,2.1,0.6,2.8-0.3c0.7-0.8,0.7-2.1-0.2-2.7l-17-15
		C19.9,952.5,19.4,952.4,19,952.4L19,952.4z"/>
</g>
</svg>
