<?xml version="1.0" encoding="utf-8"?>
<svg version="1.1" xmlns:xlink="http://www.w3.org/1999/xlink" width="9px" height="15px" xmlns="http://www.w3.org/2000/svg">
  <g transform="matrix(1 0 0 1 -229 -318 )">
    <path d="M 8.41451454723766 13.4068136272545  C 8.51258581235698 13.5070140280561  8.56162144491664 13.622244488978  8.56162144491664 13.7525050100201  C 8.56162144491664 13.8827655310621  8.51258581235698 13.9979959919839  8.41451454723766 14.0981963927856  L 7.67898005884276 14.8496993987976  C 7.58090879372344 14.9498997995992  7.46812683883622 15  7.3406341941811 15  C 7.21314154952599 15  7.10035959463877 14.9498997995992  7.00228832951945 14.8496993987976  L 0.14710689767898 7.84569138276549  C 0.0490356325596604 7.74549098196387  0 7.63026052104208  0 7.5  C 0 7.36973947895792  0.0490356325596604 7.25450901803602  0.14710689767898 7.15430861723451  L 7.00228832951945 0.150300601202426  C 7.10035959463877 0.0501002004008085  7.21314154952599 0  7.3406341941811 0  C 7.46812683883622 0  7.58090879372344 0.0501002004008085  7.67898005884276 0.150300601202426  L 8.41451454723766 0.901803607214443  C 8.51258581235698 1.00200400801606  8.56162144491664 1.11723446893785  8.56162144491664 1.24749498997993  C 8.56162144491664 1.37775551102201  8.51258581235698 1.49298597194392  8.41451454723766 1.59318637274553  L 4.98747230326055 5.09463000144489  L 2.63321346845374 7.5  L 8.41451454723766 13.4068136272545  Z " fill-rule="nonzero" fill="#ffffff" stroke="none" transform="matrix(1 0 0 1 229 318 )" />
  </g>
</svg>