<svg xmlns="http://www.w3.org/2000/svg" width="260" height="48" viewBox="0 0 260 48">
    <g fill="none" fill-rule="evenodd">
        <path fill="#234075" d="M76.143 10.012c-.345-.343-.284-1.142.172-1.372 1.554.115 4.139.173 5.922.173 1.604 0 4.537-.058 6.55-.173.517.173.46.972.114 1.372l-1.32.115c-1.208.113-1.895.455-1.895.968 0 .687 1.204 3.597 2.985 7.654 3.216 7.136 6.609 14.274 9.943 21.296 1.378-2.854 2.928-6.052 4.423-9.249.517-1.085.918-2.055.918-2.341 0-.285-.17-.799-.46-1.485a486.143 486.143 0 0 0-6.321-13.702c-.86-1.772-1.723-2.97-3.674-3.141l-1.38-.115c-.404-.457-.345-1.142.113-1.372 1.667.115 3.85.173 6.15.173 2.872 0 4.997-.058 6.317-.173.403.173.463.915.117 1.372l-1.492.115c-2.242.17-2.3.57-1.21 3.14a666.369 666.369 0 0 0 4.424 9.935c1.095-2.227 2.127-4.397 3.391-7.48 2.069-4.854 1.782-5.482-.056-5.595l-1.723-.115c-.402-.571-.288-1.2.115-1.372 1.55.115 3.274.173 5.401.173 1.894 0 4.19-.058 5.515-.173.403.173.46.915.116 1.372l-1.668.115c-2.414.17-3.447 2.74-4.71 5.081-1.208 2.113-3.62 7.081-4.484 9.08-.285.57-.514 1.14-.514 1.37 0 .227.113.684.4 1.37 1.955 4.396 3.965 8.679 5.86 13.017A456.374 456.374 0 0 0 119.357 28c1.148-2.742 4.194-10.335 4.599-11.363.743-2.056 1.721-4.512 1.721-5.196 0-.8-.69-1.257-1.898-1.313l-1.666-.115c-.458-.514-.4-1.142.06-1.372 2.182.115 3.733.173 5.514.173 2.184 0 3.852-.058 5.346-.173.46.173.515.915.113 1.372l-1.092.115c-2.873.284-3.39 1.997-6.836 9.934l-4.196 9.65a448.965 448.965 0 0 0-7.183 17.529c-.17.116-.4.171-.687.171-.29 0-.575-.055-.804-.171-1.842-5.08-5.174-12.22-6.954-16.215-2.068 4.168-5.516 11.476-7.184 16.215-.17.116-.403.171-.69.171a2.28 2.28 0 0 1-.86-.171c-.979-2.397-3.218-7.537-3.966-9.192-3.677-7.937-7.24-15.875-10.976-23.81-1.091-2.342-1.78-3.883-4.194-4.111l-1.38-.115zM134.946 24.914c-3.79 0-6.607 3.598-6.607 9.88 0 5.194 2.355 10.791 7.414 10.791 5.054 0 6.606-5.252 6.606-9.65 0-4.854-1.953-11.02-7.413-11.02m12.352 10.106c0 7.138-4.94 12.276-12.12 12.276-6.61 0-11.764-4.624-11.764-11.762 0-7.195 5.442-12.333 12.222-12.333 6.436 0 11.662 4.797 11.662 11.819M151.417 30.111c0-2.227 0-2.513-1.553-3.54l-.518-.342c-.23-.229-.23-.858.06-1.029 1.32-.457 4.365-1.94 5.802-2.798.289.058.46.172.46.4v3.312c0 .287.058.457.17.513 2.014-1.655 4.197-3.425 6.323-3.425 1.438 0 2.587.914 2.587 2.284a2.541 2.541 0 0 1-2.472 2.627c-.575 0-.862-.172-1.266-.401-.86-.57-1.723-.913-2.526-.913-.918 0-1.61.513-2.07 1.142-.576.8-.747 2.457-.747 4.397v7.765c0 4.11.115 4.797 2.297 4.968l2.07.171c.405.286.288 1.256-.114 1.428-2.7-.114-4.366-.172-6.38-.172-2.067 0-3.789.058-5.284.172-.404-.172-.517-1.142-.117-1.428l1.093-.171c2.126-.342 2.185-.857 2.185-4.968v-9.992zM168.422 14.294c0-3.367-.056-3.712-1.782-4.739l-.572-.343c-.29-.17-.29-.97 0-1.142 1.434-.455 4.138-1.313 6.205-2.398.228 0 .46.114.574.343-.056 1.712-.172 4.567-.172 7.08V32.68c0 .743.058.858 1.038.858 1.26 0 2.355-.63 3.904-2.228l2.354-2.512c1.61-1.714 2.014-2.342 2.014-2.627 0-.286-.29-.456-1.264-.57l-1.381-.173c-.52-.171-.52-1.255 0-1.426h1.323c2.527 0 5.917-.114 9.136-.458.401.17.46 1.142.113 1.428l-1.837.342c-1.15.23-2.127.8-3.621 1.998-2.241 1.771-4.195 3.826-5.23 4.797-.688.629-.746.914-.403 1.37.978 1.314 1.9 2.4 3.853 4.57 2.242 2.512 4.25 4.738 5.4 5.824.803.74 1.952 1.083 2.989 1.256l.804.113c.4.285.346 1.257-.115 1.428a83.015 83.015 0 0 0-5.46-.171c-2.299 0-4.307.057-5.974.171-.46-.229-.52-1.198-.115-1.428l1.034-.171c.863-.115 1.437-.228 1.437-.571 0-.341-.23-.743-.979-1.598l-6.147-7.082a2.338 2.338 0 0 0-1.783-.8c-1.032 0-1.09.173-1.09 1.942v3.14c0 4.112.116 4.684 2.183 4.969l1.378.171c.402.285.289 1.257-.113 1.428a87.955 87.955 0 0 0-5.573-.171c-2.069 0-3.791.057-5.516.171-.402-.171-.518-1.143-.06-1.428l1.264-.171c2.128-.285 2.184-.857 2.184-4.968V14.294z"/>
        <path fill="#E3A82B" d="M201.98 37.078c0 2.055.115 4.967 1.207 6.222 1.09 1.314 2.815 1.6 4.538 1.6 5.115 0 9.021-2.285 9.021-7.994 0-4.511-2.299-9.764-11.434-9.764-3.103 0-3.332.343-3.332 1.484v8.452zm0-13.248c0 1.598.057 1.714 2.988 1.598 5.86-.228 9.021-1.94 9.021-7.308 0-5.596-4.196-7.71-8.562-7.71-1.263 0-2.128.116-2.642.345-.576.171-.805.456-.805 1.484V23.83zm-4.712-7.595c0-4.225-.23-5.309-2.816-5.537l-1.837-.172c-.46-.343-.403-1.2.055-1.428 3.105-.285 7.011-.458 12.355-.458 3.62 0 7.067.287 9.652 1.6 2.47 1.2 4.369 3.483 4.369 7.137 0 4.111-2.415 6.224-5.862 7.823 0 .57.46.742 1.094.858 3.1.569 7.696 3.424 7.696 9.535 0 6.624-4.94 11.077-15.283 11.077-1.666 0-4.482-.171-6.897-.171-2.526 0-4.478.113-6.606.17-.344-.17-.459-1.084-.116-1.427l1.035-.172c3.044-.512 3.161-1.141 3.161-7.136V16.235zM230.73 12.753c4.193-3.255 9.537-4.854 15.513-4.854 3.104 0 7.469.628 10.17 1.37.691.172 1.09.287 1.608.23.057 1.313.346 4.91.807 8.393-.289.399-1.15.455-1.551.115-.864-3.884-3.45-8.338-11.78-8.338-8.792 0-16.264 5.54-16.264 17.36 0 11.99 7.644 18.613 17.068 18.613 7.41 0 10.686-4.796 12.008-8.166.402-.285 1.263-.17 1.495.228-.403 2.971-1.896 6.74-2.759 7.824-.69.114-1.378.343-2.01.572-1.263.456-5.402 1.312-9.08 1.312-5.17 0-10.113-1.027-14.304-3.826-4.6-3.14-8.164-8.336-8.164-15.702 0-6.337 2.876-11.763 7.242-15.13"/>
        <path fill="#8A8D8B" d="M65.107 47.412h.718V.16h-.718z"/>
        <path fill="#FFFFFE" d="M48.01 17.444C45.46 7.681 36.575 1.616 27.642 1.616c-9.365 0-18.148 6.21-20.576 16.409-.34 1.423-.511 3.008-.511 4.528 0 1.348.14 2.483.383 3.76.187-.038.264-.058.471-.099v-.002c1.912-.326 4.937-.718 7.522-.394 4.107.516 6.674 1.203 11.009 2.177 4.334.974 7.529 1.89 12.206 1.375 4.096-.451 6.9-1.086 9.63-2.871v-.002l.222-.141.29-.214c.2-1.163.351-2.321.351-3.54 0-1.711-.243-3.566-.629-5.158"/>
        <path fill="#234075" d="M9.037 36.469c0 .407.025.983.264 1.23.24.26.62.317.998.317 1.122 0 1.98-.451 1.98-1.58 0-.893-.506-1.931-2.51-1.931-.681 0-.732.068-.732.293v1.671zm0-2.62c0 .317.013.34.656.317 1.287-.045 1.98-.384 1.98-1.445 0-1.107-.921-1.525-1.878-1.525-.278 0-.467.023-.581.068-.126.034-.177.091-.177.294v2.291zm-1.034-1.5c0-.836-.05-1.05-.618-1.097l-.404-.033c-.1-.068-.087-.237.013-.282.68-.057 1.539-.091 2.712-.091.795 0 1.55.056 2.12.316.54.238.957.69.957 1.412 0 .813-.53 1.23-1.286 1.547 0 .113.1.147.24.17.68.112 1.69.677 1.69 1.885 0 1.31-1.085 2.19-3.355 2.19-.366 0-.984-.033-1.514-.033-.555 0-.985.022-1.45.033-.076-.033-.101-.214-.026-.282l.227-.034c.67-.102.694-.226.694-1.411v-4.29zM22.192 33.46c0-1.022-.022-1.187-.657-1.235l-.269-.02c-.065-.038-.044-.212.021-.24.54.02.905.028 1.357.028.43 0 .798-.009 1.336-.028.065.028.087.202.022.24l-.27.02c-.636.048-.657.213-.657 1.234v3.434c0 1.022.021 1.157.658 1.225l.269.03c.065.038.043.21-.022.24a35.69 35.69 0 0 0-1.336-.03c-.452 0-.818.01-1.357.03-.065-.03-.086-.183-.02-.24l.268-.03c.635-.068.657-.203.657-1.225v-3.434zM28.169 36.912c0 1.013.02 1.158.605 1.206l.324.029c.06.038.04.211-.022.24-.574-.018-.917-.029-1.321-.029-.404 0-.757.01-1.403.03-.06-.03-.08-.193 0-.241l.363-.029c.575-.048.626-.193.626-1.206v-4.31c0-.3 0-.31-.303-.31h-.554c-.435 0-.99.02-1.242.242-.243.212-.343.424-.454.665-.082.058-.222.01-.263-.067a9.746 9.746 0 0 0 .383-1.437c.03-.02.163-.03.191 0 .062.308.395.298.86.298h4.087c.545 0 .636-.019.787-.27.05-.018.162-.008.181.03-.11.395-.18 1.177-.15 1.465-.04.078-.212.078-.263.02-.03-.24-.1-.598-.252-.704-.233-.164-.616-.241-1.171-.241h-.716c-.303 0-.293.01-.293.327v4.292zM32.495 33.46c0-1.022-.022-1.187-.658-1.235l-.27-.02c-.063-.038-.042-.212.023-.24.539.02.905.028 1.358.028.43 0 .796-.009 1.335-.028.065.028.087.202.022.24l-.27.02c-.636.048-.657.213-.657 1.234v3.434c0 1.022.02 1.157.657 1.225l.27.03c.065.038.043.21-.022.24-.539-.02-.905-.03-1.335-.03-.453 0-.82.01-1.358.03-.065-.03-.086-.183-.023-.24l.27-.03c.636-.068.658-.203.658-1.225v-3.434zM37.323 38.486c-.964 0-1.57-.25-1.787-.355-.138-.213-.287-.898-.309-1.351.056-.068.229-.087.274-.03.172.493.641 1.438 1.97 1.438.962 0 1.432-.53 1.432-1.109 0-.425-.103-.898-.939-1.35l-1.088-.599c-.573-.318-1.237-.868-1.237-1.658 0-.917.847-1.66 2.337-1.66.354 0 .766.058 1.065.126.148.039.308.058.4.058.103.232.205.772.205 1.177-.045.058-.228.086-.286.029-.148-.464-.457-1.09-1.556-1.09-1.123 0-1.363.626-1.363 1.07 0 .56.549.965.973 1.186l.916.483c.721.376 1.432.936 1.432 1.852 0 1.06-.951 1.783-2.44 1.783M43.087 35.244c-.502 0-.522.02-.522.308v1.36c0 1.013.051 1.148.637 1.206l.302.029c.063.038.042.211-.02.24-.565-.019-.92-.029-1.326-.029-.45 0-.805.02-1.212.03-.063-.03-.084-.183-.021-.241l.177-.029c.585-.097.606-.193.606-1.206V33.44c0-1.012-.073-1.177-.616-1.214l-.272-.02c-.063-.039-.042-.213.02-.241.513.01.868.028 1.318.028.407 0 .761-.009 1.21-.028.064.028.084.202.022.24l-.198.02c-.607.058-.627.203-.627 1.215v1.11c0 .298.02.308.522.308h2.987c.501 0 .522-.01.522-.308v-1.11c0-1.012-.02-1.157-.637-1.214l-.198-.02c-.063-.039-.043-.213.02-.241a27.928 27.928 0 0 0 2.496 0c.063.028.083.202.02.24l-.218.02c-.606.058-.627.203-.627 1.215v3.472c0 1.013.021 1.138.627 1.206l.25.029c.063.038.042.211-.02.24-.501-.019-.857-.029-1.265-.029-.427 0-.803.01-1.263.03-.063-.03-.083-.183-.02-.241l.198-.029c.637-.097.637-.193.637-1.206v-1.36c0-.289-.02-.308-.522-.308h-2.987zM2.026 40.507c.858-.663 1.952-.99 3.174-.99.636 0 1.53.128 2.082.28.142.035.224.058.33.047.011.267.069 1 .164 1.711-.059.081-.236.094-.317.024-.177-.793-.706-1.7-2.41-1.7-1.8 0-3.328 1.128-3.328 3.54 0 2.445 1.563 3.795 3.492 3.795 1.517 0 2.187-.978 2.457-1.665.083-.059.26-.034.306.047-.083.605-.388 1.373-.565 1.595-.14.023-.281.07-.411.116-.259.093-1.106.269-1.858.269-1.059 0-2.07-.21-2.928-.781-.94-.64-1.67-1.7-1.67-3.203 0-1.292.588-2.397 1.482-3.085M14.602 44.477c0-1.593-.744-3.309-2.69-3.309-1.06 0-2.435.685-2.435 2.797 0 1.427.733 3.278 2.74 3.278 1.223 0 2.385-.867 2.385-2.766m-6.145-.203c0-1.929 1.529-3.405 3.628-3.405 2.354 0 3.536 1.61 3.536 3.308 0 1.949-1.57 3.366-3.536 3.366-2.263 0-3.628-1.534-3.628-3.27M27.118 43.444c0-.598-.02-1.707-.195-1.997-.073-.115-.259-.183-.514-.202l-.258-.02c-.061-.067-.041-.192.02-.23.39.019.771.029 1.173.029.432 0 .71-.01 1.08-.03.082.049.072.174.022.232l-.248.02c-.257.018-.453.105-.514.23-.144.319-.144 1.427-.144 1.968v1.09c0 .839-.144 1.726-.72 2.305-.442.454-1.205.704-1.965.704-.71 0-1.42-.125-1.924-.53-.546-.424-.802-1.129-.802-2.276V42.46c0-1.003-.022-1.167-.618-1.215l-.257-.02c-.062-.038-.042-.201.02-.23.514.019.864.029 1.276.029.421 0 .762-.01 1.265-.03.062.03.083.193.021.232l-.247.02c-.596.047-.618.21-.618 1.214v2.083c0 1.553.516 2.576 2.089 2.576 1.492 0 2.058-1.1 2.058-2.565v-1.11zM39.988 45.797c0 .348.023.84.237 1.052.214.222.552.27.89.27 1.001 0 1.767-.386 1.767-1.351 0-.761-.45-1.649-2.24-1.649-.608 0-.654.058-.654.25v1.428zm0-2.238c0 .271.012.29.585.271 1.15-.04 1.768-.328 1.768-1.235 0-.945-.821-1.302-1.677-1.302-.248 0-.417.02-.518.058-.112.03-.158.077-.158.25v1.958zm-.923-1.282c0-.714-.045-.897-.551-.935l-.36-.03c-.091-.057-.08-.202.012-.24a30.968 30.968 0 0 1 2.42-.078c.709 0 1.384.048 1.892.27.482.203.854.589.854 1.206 0 .694-.473 1.051-1.148 1.32 0 .098.09.127.214.146.608.096 1.509.578 1.509 1.61 0 1.12-.97 1.872-2.997 1.872-.325 0-.876-.03-1.35-.03-.495 0-.877.02-1.293.03-.069-.03-.092-.184-.023-.241l.202-.029c.597-.087.62-.193.62-1.206v-3.665zM16.618 34.978c-.195 0-.586.072-.586-.185v-1.851c0-.723.023-.826.898-.826 1.022 0 1.656.516 1.656 1.466 0 .413-.15.796-.53 1.055-.436.3-.907.341-1.438.341m3.927 3.17l-.27-.025a2.17 2.17 0 0 1-.148-.02c-.394-.068-.553-.417-.737-.741l-.932-1.612c-.16-.27-.333-.63-.701-.683.954-.113 1.817-.66 1.817-1.6 0-1.086-1.081-1.572-2.174-1.572-.655 0-1.3.042-1.966.042-.369 0-.76-.042-1.128-.042-.204 0-.208.042-.208.156 0 .167.072.124.289.124.804 0 .748.195.748.856v4.227c0 .606.052.786-.588.844l-.152.015-.272.027c-.064.059-.043.212.022.242l.399-.015c.354-.01.708-.038 1.062-.038.355 0 .696.028 1.046.038l.4.014c.064-.03.086-.184.02-.242l-.272-.025a9.434 9.434 0 0 0-.151-.015c-.646-.043-.607-.224-.607-.845v-1.59c0-.094-.011-.343.058-.414.059-.063.161-.053.254-.053.873 0 .862.084 1.276.808l1.127 2.014c.092.156.16.352.391.352h.98c.123.003.253.007.395.013.065-.029.086-.183.022-.24M16.83 42.493c0-1.013-.021-1.167-.694-1.215l-.267-.02c-.063-.038-.043-.211.022-.24.597.018.96.029 1.387.029.417 0 .78-.01 1.314-.03.064.03.085.203.021.242l-.256.019c-.63.048-.65.202-.65 1.215v3.357c0 .607.03.858.223 1.041.117.106.32.222 1.163.222.907 0 1.131-.039 1.303-.125.213-.116.49-.464.705-.955.064-.047.266-.01.266.057 0 .107-.299 1.091-.448 1.35a92.346 92.346 0 0 0-2.659-.028h-.982c-.448 0-.79.01-1.387.029-.065-.029-.085-.184-.022-.241l.32-.03c.62-.057.641-.192.641-1.205v-3.472zM45.43 42.512c0-1.022-.022-1.186-.64-1.234l-.262-.02c-.063-.038-.041-.212.021-.24.524.019.88.028 1.32.028.42 0 .776-.01 1.3-.028.063.028.085.202.021.24l-.261.02c-.618.048-.64.212-.64 1.234v3.434c0 1.022.022 1.158.64 1.225l.261.03c.064.038.042.211-.021.24-.524-.02-.88-.029-1.3-.029-.44 0-.796.01-1.32.029-.062-.029-.084-.183-.02-.24l.261-.03c.618-.067.64-.203.64-1.225v-3.434zM37.054 47.168l-.154-.013c-.112-.01-.21-.027-.29-.112-.134-.144-.123-.553-.123-.716V42.1c0-.185-.046-.584.09-.727.069-.076.21-.088.336-.095v-.001l.146-.01.268-.018c.065-.039.045-.213-.021-.242-.143.005-.274.003-.399.007v.001h-1.145c-.125 0-.238 0-.306.133l-2.333 4.83-2.062-4.667c-.068-.163-.078-.296-.294-.296h-1.192c-.124-.004-.261-.003-.405-.008-.065.03-.086.203-.022.242l.27.019.155.01c.448.03.476.129.435.596l-.351 4.533c-.031.456-.056.696-.536.74l-.156.019-.27.029c-.064.058-.044.212.021.24l.395-.012c.244-.012.49-.033.738-.033.268 0 .535.025.803.035v.001l.4.013c.064-.028.085-.183.02-.24l-.268-.03c-.072-.005-.15-.013-.15-.013-.694-.047-.678-.533-.635-1.127l.328-4.216h.08l2.232 5.188c.022.072.056.194.17.194.101 0 .135-.112.17-.184l2.514-5.322h.08v4.637c0 .184.022.562-.17.706-.102.074-.428.119-.428.119a2.1 2.1 0 0 1-.147.018l-.268.03c-.065.057-.044.212.02.24l.395-.013c.365-.01.735-.036 1.106-.036.268 0 .79.025.79.025.124.004.267.017.41.023.065-.03.087-.183.022-.242l-.27-.029zM51.729 44.807h-1.26c-.045 0-.396.042-.396-.06 0-.031.022-.093.033-.124l.757-1.86c.022-.052.098-.307.185-.307.067 0 .154.266.177.307l.744 1.738c0 .02.077.184.077.225 0 .113-.252.081-.317.081m2.829 2.387l-.036-.029a2.12 2.12 0 0 1-.147-.018c-.42-.094-.584-.596-.739-.955l-2.16-5.079c-.02-.061-.064-.193-.15-.193-.117 0-.148.142-.181.223l-2.063 5.07c-.075.193-.269.658-.407.8-.106.108-.245.129-.393.144l-.172.017-.254.026c-.065.058-.043.212.022.24.143-.004.4-.014.4-.014.281-.003.564-.04.847-.04.237 0 .474.026.712.037l.399.014c.065-.029.086-.183.021-.242l-.269-.028a51.722 51.722 0 0 0-.147-.014c-.246-.027-.557-.072-.557-.343 0-.182.085-.395.15-.557l.32-.758c.161-.365.098-.405.525-.405h1.454c.513 0 .439 0 .663.516l.342.77c.053.13.15.353.15.495 0 .255-.279.27-.54.294l-.162.012-.26.018c-.064.059-.043.213.022.242l.4-.015c.303-.011.61-.035.904-.035.374 0 .749.025 1.123.036.123.003.019.007.16.013.066-.029.088-.184.023-.242M7.056 18.078c-.177.829-.5 2.39-.5 4.474 0 1.349.14 2.483.384 3.761.187-.038.264-.057.472-.099 0-.001 0-.002-.002-.002 1.912-.326 4.937-.718 7.522-.393 4.107.515 6.674 1.202 11.01 2.176 4.335.973 7.529 1.89 12.207 1.375 4.095-.451 6.898-1.085 9.629-2.871v-.002l.22-.141c.047-.033.234-.17.292-.214.2-1.163.35-2.321.35-3.54 0-1.637-.22-3.407-.578-4.95l-2.899-1.607-3.352 2.337-2.254-.874c-.765.384-5.473 3.514-5.473 3.514l-1.808-1.3-1.94-.382-2.585-1.871-2.967 2.023s-3.309 1.91-3.423 1.91c-.114 0-3.993-3.055-3.993-3.055l-1.787-1.872c-.304.192-1.52.746-1.52.746l-.062.017-1.177-.362-1.427-.753-4.34 1.955z"/>
        <path fill="#E3A82B" d="M10.757 16.058l-2.39-.876.082-.218 2.628.913.251-.157 1.257.678 1.56.566.093-.042-5.568-2.49c.031-.073.064-.146.096-.217l6.135 2.434.088-.045-5.98-2.917c.034-.07.067-.14.102-.208l6.493 2.814-6.227-3.334c.034-.064.066-.128.1-.19l8.747 4.6c.125-.232.26-.459.401-.68l-7.127-5.532 7.606 4.848c.188-.246.387-.484.594-.712l-7.317-6.59.16-.171 5.316 4.667-4.916-5.082c.056-.058.113-.113.17-.17l5.546 5.291-5.126-5.692c.057-.053.113-.106.17-.157l4.967 5.032L14.14 7c.055-.048.11-.093.166-.14l6.355 7.496c.246-.21.499-.41.764-.599l-4.533-7.8 5.235 7.341c.284-.17.576-.325.876-.468l-4.287-8.807.222-.104 3.175 6.319-2.645-6.554.22-.093 3.152 6.98-2.61-7.194.217-.082 2.71 6.523-2.155-6.719.191-.061 3.057 9.287c.283-.094.572-.177.867-.247l-1.263-8.92 2.086 8.755c.347-.055.7-.091 1.057-.113l-.652-9.729c.073-.004.147-.01.221-.013l.675 6.994-.099-7.013c.08-.002.162-.002.241-.003l.29 7.364.29-7.361c.079 0 .157.003.235.005l-.063 7.008.647-6.982.218.014-.666 9.72c.34.022.675.057 1.005.11l2.08-8.728-1.258 8.892c.309.075.611.163.909.264l3.044-9.25c.072.024.144.048.215.074l-2.134 6.652 2.682-6.454.22.083-2.584 7.123 3.118-6.905.222.097-2.613 6.476 3.135-6.24.2.097-4.262 8.754c.29.14.573.292.848.457l5.22-7.32-4.522 7.78c.271.193.532.4.783.616l6.3-7.433c.059.05.115.1.172.15l-4.48 5.366 4.913-4.978.174.16-5.075 5.634 5.486-5.234.17.172-4.857 5.024 5.25-4.61c.05.053.1.106.148.16l-7.245 6.524c.205.228.402.464.587.707l7.59-4.839-7.115 5.523c.142.222.275.45.401.682l8.642-4.546.108.201-6.12 3.277 6.38-2.764.101.213-6.779 3.312 7.016-2.793c.032.075.066.149.099.223l-6.36 2.832 6.572-2.308c.026.068.053.135.077.203l-1.405.514 2.088 1.577.577.32v.002a24.178 24.178 0 0 0-.882-2.775C44.04 6.983 36.137 1.599 27.57 1.599 17.53 1.6 9.14 8.607 7.075 17.97a2.22 2.22 0 0 0-.024.114l.411-.19 3.295-1.835z"/>
    </g>
</svg>