<svg height='100px' width='100px'  fill="#26a7df" xmlns="http://www.w3.org/2000/svg" xmlns:xlink="http://www.w3.org/1999/xlink" version="1.1" x="0px" y="0px" viewBox="0 0 24 24" style="enable-background:new 0 0 24 24;" xml:space="preserve"><style type="text/css">
	.st0{fill-rule:evenodd;clip-rule:evenodd;}
</style><path class="st0" d="M23.7,23.7c-0.4,0.4-1,0.4-1.4,0c0,0,0,0,0,0L14.6,16c-3.9,3.1-9.5,2.4-12.6-1.5  C-1,10.7-0.4,5.1,3.5,2S13-0.4,16.1,3.5c2.6,3.3,2.6,7.9,0,11.1l7.7,7.7C24.1,22.7,24.1,23.3,23.7,23.7  C23.7,23.7,23.7,23.7,23.7,23.7z M9,2C5.1,2,2,5.1,2,9s3.1,7,7,7s7-3.1,7-7S12.9,2,9,2z M12,10h-2v2c0,0.6-0.4,1-1,1s-1-0.4-1-1v-2  H6c-0.6,0-1-0.4-1-1s0.4-1,1-1h2V6c0-0.6,0.4-1,1-1s1,0.4,1,1v2h2c0.6,0,1,0.4,1,1S12.6,10,12,10z"></path></svg>