<?xml version="1.0" encoding="utf-8"?>
<svg version="1.1" xmlns:xlink="http://www.w3.org/1999/xlink" width="18px" height="28px" xmlns="http://www.w3.org/2000/svg">
  <g transform="matrix(1 0 0 1 -153 -1024 )">
    <path d="M 12.2783203125 6.52604166666667  C 12.7177734375 6.98784722222222  12.9375 7.53472222222222  12.9375 8.16666666666667  C 12.9375 8.32465277777778  12.8818359375 8.46137152777778  12.7705078125 8.57682291666667  C 12.6591796875 8.69227430555555  12.52734375 8.75  12.375 8.75  C 12.22265625 8.75  12.0908203125 8.69227430555555  11.9794921875 8.57682291666667  C 11.8681640625 8.46137152777778  11.8125 8.32465277777778  11.8125 8.16666666666667  C 11.8125 7.60763888888889  11.49609375 7.17621527777778  10.86328125 6.87239583333333  C 10.23046875 6.56857638888889  9.609375 6.41666666666667  9 6.41666666666667  C 8.84765625 6.41666666666667  8.7158203125 6.35894097222222  8.6044921875 6.24348958333333  C 8.4931640625 6.12803819444444  8.4375 5.99131944444444  8.4375 5.83333333333333  C 8.4375 5.67534722222222  8.4931640625 5.53862847222222  8.6044921875 5.42317708333333  C 8.7158203125 5.30772569444444  8.84765625 5.25  9 5.25  C 9.5859375 5.25  10.1689453125 5.34722222222222  10.7490234375 5.54166666666667  C 11.3291015625 5.73611111111111  11.8388671875 6.06423611111111  12.2783203125 6.52604166666667  Z M 14.5546875 11.4479166666667  C 15.3515625 10.4878472222222  15.75 9.39409722222222  15.75 8.16666666666667  C 15.75 7.29166666666667  15.5478515625 6.47743055555555  15.1435546875 5.72395833333333  C 14.7392578125 4.97048611111111  14.2119140625 4.35373263888889  13.5615234375 3.87369791666667  C 12.9111328125 3.39366319444444  12.1904296875 3.01692708333333  11.3994140625 2.74348958333333  C 10.6083984375 2.47005208333333  9.80859375 2.33333333333333  9 2.33333333333333  C 8.19140625 2.33333333333333  7.3916015625 2.47005208333333  6.6005859375 2.74348958333333  C 5.8095703125 3.01692708333333  5.0888671875 3.39366319444444  4.4384765625 3.87369791666667  C 3.7880859375 4.35373263888889  3.2607421875 4.97048611111111  2.8564453125 5.72395833333333  C 2.4521484375 6.47743055555555  2.25 7.29166666666667  2.25 8.16666666666667  C 2.25 9.39409722222222  2.6484375 10.4878472222222  3.4453125 11.4479166666667  C 3.5625 11.5815972222222  3.7412109375 11.7821180555556  3.9814453125 12.0494791666667  C 4.2216796875 12.3168402777778  4.400390625 12.5173611111111  4.517578125 12.6510416666667  C 6.017578125 14.5104166666667  6.84375 16.3211805555556  6.99609375 18.0833333333333  L 11.00390625 18.0833333333333  C 11.15625 16.3211805555556  11.982421875 14.5104166666667  13.482421875 12.6510416666667  C 13.599609375 12.5173611111111  13.7783203125 12.3168402777778  14.0185546875 12.0494791666667  C 14.2587890625 11.7821180555556  14.4375 11.5815972222222  14.5546875 11.4479166666667  Z M 17.2177734375 4.80338541666667  C 17.7392578125 5.84244791666667  18 6.96354166666667  18 8.16666666666667  C 18 10.0503472222222  17.396484375 11.6788194444444  16.189453125 13.0520833333333  C 15.662109375 13.6475694444444  15.2255859375 14.1762152777778  14.8798828125 14.6380208333333  C 14.5341796875 15.0998263888889  14.185546875 15.6801215277778  13.833984375 16.37890625  C 13.482421875 17.0776909722222  13.283203125 17.7309027777778  13.236328125 18.3385416666667  C 13.787109375 18.6788194444444  14.0625 19.1770833333333  14.0625 19.8333333333333  C 14.0625 20.2829861111111  13.916015625 20.671875  13.623046875 21  C 13.916015625 21.328125  14.0625 21.7170138888889  14.0625 22.1666666666667  C 14.0625 22.7986111111111  13.798828125 23.2907986111111  13.271484375 23.6432291666667  C 13.423828125 23.9227430555556  13.5 24.2083333333333  13.5 24.5  C 13.5 25.0590277777778  13.3154296875 25.4904513888889  12.9462890625 25.7942708333333  C 12.5771484375 26.0980902777778  12.123046875 26.25  11.583984375 26.25  C 11.349609375 26.7847222222222  10.998046875 27.2100694444444  10.529296875 27.5260416666667  C 10.060546875 27.8420138888889  9.55078125 28  9 28  C 8.44921875 28  7.939453125 27.8420138888889  7.470703125 27.5260416666667  C 7.001953125 27.2100694444444  6.650390625 26.7847222222222  6.416015625 26.25  C 5.876953125 26.25  5.4228515625 26.0980902777778  5.0537109375 25.7942708333333  C 4.6845703125 25.4904513888889  4.5 25.0590277777778  4.5 24.5  C 4.5 24.2083333333333  4.576171875 23.9227430555556  4.728515625 23.6432291666667  C 4.201171875 23.2907986111111  3.9375 22.7986111111111  3.9375 22.1666666666667  C 3.9375 21.7170138888889  4.083984375 21.328125  4.376953125 21  C 4.083984375 20.671875  3.9375 20.2829861111111  3.9375 19.8333333333333  C 3.9375 19.1770833333333  4.212890625 18.6788194444444  4.763671875 18.3385416666667  C 4.716796875 17.7309027777778  4.517578125 17.0776909722222  4.166015625 16.37890625  C 3.814453125 15.6801215277778  3.4658203125 15.0998263888889  3.1201171875 14.6380208333333  C 2.7744140625 14.1762152777778  2.337890625 13.6475694444444  1.810546875 13.0520833333333  C 0.603515625 11.6788194444444  0 10.0503472222222  0 8.16666666666667  C 0 6.96354166666667  0.2607421875 5.84244791666667  0.7822265625 4.80338541666667  C 1.3037109375 3.76432291666667  1.9892578125 2.90147569444444  2.8388671875 2.21484375  C 3.6884765625 1.52821180555555  4.6494140625 0.987413194444441  5.7216796875 0.592447916666666  C 6.7939453125 0.197482638888888  7.88671875 0  9 0  C 10.11328125 0  11.2060546875 0.197482638888888  12.2783203125 0.592447916666666  C 13.3505859375 0.987413194444441  14.3115234375 1.52821180555555  15.1611328125 2.21484375  C 16.0107421875 2.90147569444444  16.6962890625 3.76432291666667  17.2177734375 4.80338541666667  Z " fill-rule="nonzero" fill="#f7c204" stroke="none" transform="matrix(1 0 0 1 153 1024 )" />
  </g>
</svg>