<?xml version="1.0" encoding="utf-8"?>
<svg version="1.1" xmlns:xlink="http://www.w3.org/1999/xlink" width="15px" height="24px" xmlns="http://www.w3.org/2000/svg">
  <g transform="matrix(1 0 0 1 -1186 -1382 )">
    <path d="M 14.0241909120628 21.4509018036071  C 14.187643020595 21.6112224448897  14.2693690748611 21.7955911823648  14.2693690748611 22.0040080160321  C 14.2693690748611 22.2124248496994  14.187643020595 22.3967935871743  14.0241909120628 22.5571142284569  L 12.7983000980713 23.7595190380761  C 12.6348479895391 23.9198396793587  12.446878064727 24  12.2343903236352 24  C 12.0219025825433 24  11.8339326577313 23.9198396793587  11.6704805491991 23.7595190380761  L 0.2451781627983 12.5531062124248  C 0.0817260542661006 12.3927855711422  0 12.2084168336673  0 12  C 0 11.7915831663327  0.0817260542661006 11.6072144288576  0.2451781627983 11.4468937875752  L 11.6704805491991 0.240480961923881  C 11.8339326577313 0.0801603206412936  12.0219025825433 0  12.2343903236352 0  C 12.446878064727 0  12.6348479895391 0.0801603206412936  12.7983000980713 0.240480961923881  L 14.0241909120628 1.44288577154311  C 14.187643020595 1.6032064128257  14.2693690748611 1.78757515030057  14.2693690748611 1.99599198396789  C 14.2693690748611 2.20440881763522  14.187643020595 2.38877755511027  14.0241909120628 2.54909819639286  L 8.31245383876759 8.15140800231183  L 4.38868911408957 12  L 14.0241909120628 21.4509018036071  Z " fill-rule="nonzero" fill="#000000" stroke="none" fill-opacity="0.313725490196078" transform="matrix(1 0 0 1 1186 1382 )" />
  </g>
</svg>