<?xml version="1.0" encoding="utf-8"?>
<svg version="1.1" xmlns:xlink="http://www.w3.org/1999/xlink" width="19px" height="19px" xmlns="http://www.w3.org/2000/svg">
  <g transform="matrix(1 0 0 1 -423 -21 )">
    <path d="M 10.6255475 9.4589975  L 18.0858575 16.9193075  C 18.4082675 17.2417175  18.4082675 17.7637775  18.0858575 18.0858575  C 17.9248175 18.2468975  17.7136175 18.3277475  17.5024175 18.3277475  C 17.2915475 18.3277475  17.0803475 18.2468975  16.9193075 18.0858575  L 9.4586675 10.6255475  L 1.9983575 18.0858575  C 1.8373175 18.2468975  1.6261175 18.3277475  1.4149175 18.3277475  C 1.2040475 18.3277475  0.9928475 18.2468975  0.8318075 18.0858575  C 0.5093975 17.7637775  0.5093975 17.2417175  0.8318075 16.9193075  L 8.2921175 9.4589975  L 0.8318075 1.9983575  C 0.5093975 1.6762775  0.5093975 1.1542175  0.8318075 0.8318075  C 1.1538875 0.5093975  1.6759475 0.5093975  1.9983575 0.8318075  L 9.4586675 8.2921175  L 16.9193075 0.8318075  C 17.2413875 0.5093975  17.7634475 0.5093975  18.0858575 0.8318075  C 18.4082675 1.1542175  18.4082675 1.6762775  18.0858575 1.9983575  L 10.6255475 9.4589975  Z " fill-rule="nonzero" fill="#333333" stroke="none" transform="matrix(1 0 0 1 423 21 )" />
  </g>
</svg>