<?xml version="1.0" encoding="utf-8"?>
<!-- Generator: Adobe Illustrator 25.2.0, SVG Export Plug-In . SVG Version: 6.00 Build 0)  -->
<svg version="1.1" id="Layer_1" xmlns="http://www.w3.org/2000/svg" xmlns:xlink="http://www.w3.org/1999/xlink" x="0px" y="0px"
	 viewBox="0 0 100 100" style="enable-background:new 0 0 100 100;" xml:space="preserve">
<style type="text/css">
	.st0{fill-rule:evenodd;clip-rule:evenodd;fill:#333333;}
	.st1{fill-rule:evenodd;clip-rule:evenodd;fill:#204EA0;}
	.st2{fill:none;}
</style>
<g>
	<path class="st0" d="M61.9,20.2H29.3v26.5c0,0.8-0.6,1.4-1.4,1.4c-0.8,0-1.4-0.6-1.4-1.4v-28c0-0.8,0.6-1.4,1.4-1.4h35
		c0.4,0,0.8,0.2,1,0.4l9.3,9.3c0.3,0.3,0.4,0.6,0.4,1l0,18.6c0,0.8-0.6,1.4-1.4,1.4c-0.8,0-1.4-0.6-1.4-1.4V29.1h-3.2
		c-1.5,0-3-0.6-4-1.7c-1-1-1.7-2.4-1.7-4L61.9,20.2L61.9,20.2z M29.3,79.8h41.4v-7.5c0-0.8,0.6-1.4,1.4-1.4c0.8,0,1.4,0.6,1.4,1.4
		v8.9c0,0.8-0.6,1.4-1.4,1.4H27.8c-0.8,0-1.4-0.6-1.4-1.4v-8.9c0-0.8,0.6-1.4,1.4-1.4c0.8,0,1.4,0.6,1.4,1.4L29.3,79.8L29.3,79.8z"
		/>
	<polygon class="st0" points="36.1,33.9 63.9,33.9 63.9,36.3 36.1,36.3 	"/>
	<polygon class="st0" points="36.1,39.6 63.9,39.6 63.9,42 36.1,42 	"/>
	<polygon class="st0" points="36.1,28.2 55.8,28.2 55.8,30.6 36.1,30.6 	"/>
	<path class="st1" d="M32.1,53.4h4.5c1,0,1.8,0.1,2.3,0.2c0.7,0.2,1.3,0.6,1.8,1.1c0.5,0.5,0.9,1.2,1.2,2c0.3,0.8,0.4,1.7,0.4,2.9
		c0,1-0.1,1.9-0.4,2.6c-0.3,0.9-0.7,1.6-1.3,2.2c-0.4,0.4-1,0.7-1.7,1c-0.5,0.2-1.3,0.3-2.2,0.3h-4.6V53.4L32.1,53.4z M43.9,59.6
		c0-1.2,0.2-2.3,0.6-3.1c0.3-0.6,0.7-1.2,1.1-1.7c0.5-0.5,1-0.9,1.6-1.1c0.8-0.3,1.6-0.5,2.6-0.5c1.8,0,3.2,0.6,4.3,1.7
		c1.1,1.1,1.6,2.7,1.6,4.6c0,2-0.5,3.5-1.6,4.6c-1.1,1.1-2.5,1.7-4.3,1.7c-1.8,0-3.3-0.6-4.3-1.7C44.5,63,43.9,61.5,43.9,59.6
		L43.9,59.6z M57.2,59.6c0-2,0.5-3.6,1.6-4.7c1-1.1,2.4-1.7,4.1-1.7c1.5,0,2.7,0.4,3.6,1.3c0.6,0.5,1,1.3,1.2,2.2l-2.4,0.6
		c-0.1-0.6-0.4-1.1-0.9-1.5c-0.5-0.4-1-0.5-1.7-0.5c-0.9,0-1.6,0.3-2.2,1c-0.6,0.6-0.8,1.7-0.8,3.1c0,1.5,0.3,2.6,0.8,3.3
		c0.6,0.7,1.3,1,2.2,1c0.7,0,1.2-0.2,1.7-0.6c0.5-0.4,0.8-1.1,1-2l2.4,0.8c-0.4,1.3-1,2.3-1.8,3c-0.8,0.6-1.9,1-3.2,1
		c-1.6,0-2.9-0.6-4-1.7C57.8,63,57.2,61.5,57.2,59.6L57.2,59.6z M29.3,73.2h41.4h2.9h4.8c0.5,0,1-0.4,1-1V46.8c0-0.5-0.4-1-1-1h-4.8
		h-2.9H29.3h-2.9h-4.8c-0.5,0-1,0.4-1,1v25.5c0,0.5,0.4,1,1,1h4.8H29.3z"/>
	<path class="st1" d="M47.4,56.4c-0.6,0.7-0.9,1.7-0.9,3.1c0,1.4,0.3,2.4,1,3.1c0.6,0.7,1.4,1.1,2.4,1.1c1,0,1.8-0.4,2.4-1.1
		c0.6-0.7,0.9-1.8,0.9-3.2c0-1.4-0.3-2.4-0.9-3.1c-0.6-0.7-1.4-1-2.4-1C48.8,55.3,48,55.7,47.4,56.4z"/>
	<path class="st1" d="M39.8,59.5c0-0.9-0.1-1.7-0.2-2.2c-0.2-0.5-0.4-0.9-0.7-1.2c-0.3-0.3-0.7-0.5-1.1-0.6c-0.3-0.1-1-0.1-2-0.1
		h-1.1v8.1h1.8c0.7,0,1.2,0,1.5-0.1c0.4-0.1,0.7-0.3,1-0.5c0.3-0.2,0.5-0.6,0.6-1.2C39.7,61.2,39.8,60.5,39.8,59.5L39.8,59.5z"/>
</g>
<rect class="st2" width="100" height="100"/>
</svg>
