<?xml version="1.0" encoding="utf-8"?>
<svg version="1.1" xmlns:xlink="http://www.w3.org/1999/xlink" width="28px" height="33px" xmlns="http://www.w3.org/2000/svg">
  <g transform="matrix(1 0 0 1 -36 -498 )">
    <path d="M 9.33333333333333 7.07142857142857  L 11.6666666666667 7.07142857142857  L 11.6666666666667 4.71428571428572  L 9.33333333333333 4.71428571428572  L 9.33333333333333 7.07142857142857  Z M 11.6666666666667 9.42857142857143  L 14 9.42857142857143  L 14 7.07142857142857  L 11.6666666666667 7.07142857142857  L 11.6666666666667 9.42857142857143  Z M 9.33333333333333 11.7857142857143  L 11.6666666666667 11.7857142857143  L 11.6666666666667 9.42857142857143  L 9.33333333333333 9.42857142857143  L 9.33333333333333 11.7857142857143  Z M 11.6666666666667 14.1428571428571  L 14 14.1428571428571  L 14 11.7857142857143  L 11.6666666666667 11.7857142857143  L 11.6666666666667 14.1428571428571  Z M 21.0729166666667 1.25223214285714  L 26.7604166666667 6.99776785714286  C 27.1006944444444 7.34151785714285  27.3923611111111 7.80803571428572  27.6354166666667 8.39732142857143  C 27.8784722222222 8.98660714285714  28 9.52678571428571  28 10.0178571428571  L 28 31.2321428571429  C 28 31.7232142857143  27.8298611111111 32.140625  27.4895833333333 32.484375  C 27.1493055555556 32.828125  26.7361111111111 33  26.25 33  L 1.75 33  C 1.26388888888889 33  0.850694444444445 32.828125  0.510416666666667 32.484375  C 0.170138888888889 32.140625  0 31.7232142857143  0 31.2321428571429  L 0 1.76785714285714  C 0 1.27678571428571  0.170138888888889 0.859374999999999  0.510416666666667 0.515625  C 0.850694444444445 0.171875000000001  1.26388888888889 0  1.75 0  L 18.0833333333333 0  C 18.5694444444444 0  19.1041666666667 0.122767857142859  19.6875 0.368303571428572  C 20.2708333333333 0.613839285714285  20.7326388888889 0.908482142857141  21.0729166666667 1.25223214285714  Z M 19.4140625 2.90959821428572  C 19.2682291666667 2.76227678571428  19.0190972222222 2.62723214285714  18.6666666666667 2.50446428571428  L 18.6666666666667 9.42857142857143  L 25.5208333333333 9.42857142857143  C 25.3993055555556 9.07254464285714  25.265625 8.82087053571428  25.1197916666667 8.67354910714286  L 19.4140625 2.90959821428572  Z M 2.33333333333333 30  L 25.6666666666667 30  L 25.6666666666667 11.7857142857143  L 18.0833333333333 11.7857142857143  C 17.5972222222222 11.7857142857143  17.1840277777778 11.6138392857143  16.84375 11.2700892857143  C 16.5034722222222 10.9263392857143  16.3333333333333 10.5089285714286  16.3333333333333 10.0178571428571  L 16.3333333333333 2.35714285714286  L 14 2.35714285714286  L 14 4.71428571428572  L 11.6666666666667 4.71428571428572  L 11.6666666666667 2.35714285714286  L 2.33333333333333 2.35714285714286  L 2.33333333333333 30  Z M 13.8177083333333 16.7393973214286  C 14.0243055555556 16.8989955357143  14.1640625 17.1077008928571  14.2369791666667 17.3655133928571  L 16.1875 23.7924107142857  C 16.2847222222222 24.1238839285714  16.3333333333333 24.4430803571429  16.3333333333333 24.75  C 16.3333333333333 25.7689732142857  15.8927951388889 26.6130022321429  15.01171875 27.2820870535714  C 14.1306423611111 27.951171875  13.015625 28.2857142857143  11.6666666666667 28.2857142857143  C 10.3177083333333 28.2857142857143  9.20269097222222 27.951171875  8.32161458333333 27.2820870535714  C 7.44053819444444 26.6130022321429  7 25.7689732142857  7 24.75  C 7 24.4430803571429  7.04861111111111 24.1238839285714  7.14583333333333 23.7924107142857  C 7.40104166666667 23.0189732142857  8.13020833333333 20.5881696428571  9.33333333333333 16.5  L 9.33333333333333 14.1428571428571  L 11.6666666666667 14.1428571428571  L 11.6666666666667 16.5  L 13.1067708333333 16.5  C 13.3741319444444 16.5  13.6111111111111 16.5797991071429  13.8177083333333 16.7393973214286  Z M 10.0169270833333 25.5786830357143  C 10.47265625 25.8119419642857  11.0225694444444 25.9285714285714  11.6666666666667 25.9285714285714  C 12.3107638888889 25.9285714285714  12.8606770833333 25.8119419642857  13.31640625 25.5786830357143  C 13.7721354166667 25.3454241071429  14 25.0691964285714  14 24.75  C 14 24.4308035714286  13.7721354166667 24.1545758928571  13.31640625 23.9213169642857  C 12.8606770833333 23.6880580357143  12.3107638888889 23.5714285714286  11.6666666666667 23.5714285714286  C 11.0225694444444 23.5714285714286  10.47265625 23.6880580357143  10.0169270833333 23.9213169642857  C 9.56119791666667 24.1545758928571  9.33333333333333 24.4308035714286  9.33333333333333 24.75  C 9.33333333333333 25.0691964285714  9.56119791666667 25.3454241071429  10.0169270833333 25.5786830357143  Z " fill-rule="nonzero" fill="#000000" stroke="none" transform="matrix(1 0 0 1 36 498 )" />
  </g>
</svg>