<!-- Generator: Adobe Illustrator 25.2.1, SVG Export Plug-In  -->
<svg version="1.1" xmlns="http://www.w3.org/2000/svg" xmlns:xlink="http://www.w3.org/1999/xlink" x="0px" y="0px" width="88px"
	 height="46.7px" viewBox="0 0 88 46.7" style="overflow:visible;enable-background:new 0 0 88 46.7;" xml:space="preserve">
<style type="text/css">
	.st0{fill-rule:evenodd;clip-rule:evenodd;fill:#333333;}
</style>
<defs>
</defs>
<g transform="translate(0,-312.06665)">
	<path class="st0" d="M84,312.1c-1.1,0-2.1,0.4-2.8,1.2L44,349.2L6.8,313.3c-0.8-0.8-1.8-1.2-2.9-1.2c-2.2,0-4,1.9-3.9,4.1
		c0,1.1,0.5,2.1,1.3,2.8l40,38.6c1.6,1.5,4,1.5,5.6,0l40-38.6c1.6-1.5,1.7-4,0.2-5.7C86.2,312.5,85.1,312.1,84,312.1L84,312.1z"/>
</g>
</svg>
