<?xml version="1.0" encoding="utf-8"?>
<svg version="1.1" xmlns:xlink="http://www.w3.org/1999/xlink" width="11px" height="22px" xmlns="http://www.w3.org/2000/svg">
  <g transform="matrix(1 0 0 1 -14 -8 )">
    <path d="M 8.09722222222222 0  C 9.34490740740741 0  10.3125 0.0528846153846152  11 0.158653846153846  L 11 3.64903846153846  L 9.00115740740741 3.64903846153846  C 8.27121913580247 3.64903846153846  7.77893518518519 3.80769230769231  7.52430555555556 4.125  C 7.26967592592593 4.44230769230769  7.14236111111111 4.91826923076923  7.14236111111111 5.55288461538461  L 7.14236111111111 8.05168269230769  L 10.8726851851852 8.05168269230769  L 10.3761574074074 11.9651442307692  L 7 11.9651442307692  L 7 22  L 3.24652777777778 22  L 3.24652777777778 11.9651442307692  L 0 11.9651442307692  L 0 8.05168269230769  L 3.24652777777778 8.05168269230769  L 3.24652777777778 5.16947115384615  C 3.24652777777778 3.53004807692308  3.68788580246914 2.25861378205128  4.57060185185185 1.35516826923077  C 5.45331790123457 0.451722756410258  6.62885802469136 0  8.09722222222222 0  Z " fill-rule="nonzero" fill="#ffffff" stroke="none" transform="matrix(1 0 0 1 14 8 )" />
  </g>
</svg>