<?xml version="1.0" encoding="utf-8"?>
<svg version="1.1" xmlns:xlink="http://www.w3.org/1999/xlink" width="16px" height="15px" xmlns="http://www.w3.org/2000/svg">
  <g transform="matrix(1 0 0 1 -11 -11 )">
    <path d="M 0.197916666666667 4.87397820163488  L 3.63541666666667 4.87397820163488  L 3.63541666666667 15  L 0.197916666666667 15  L 0.197916666666667 4.87397820163488  Z M 3.32291666666667 0.495572207084469  C 3.67013888888889 0.825953678474114  3.84722222222222 1.24318801089918  3.85416666666667 1.74727520435967  C 3.86111111111111 2.24455040871934  3.68576388888889 2.66008174386921  3.328125 2.99386920980926  C 2.97048611111111 3.32765667574932  2.5 3.49455040871935  1.91666666666667 3.49455040871935  L 1.89583333333333 3.49455040871935  C 1.32638888888889 3.49455040871935  0.868055555555556 3.32765667574932  0.520833333333333 2.99386920980926  C 0.173611111111111 2.66008174386921  0 2.24455040871934  0 1.74727520435967  C 0 1.24318801089918  0.178819444444444 0.825953678474114  0.536458333333333 0.495572207084469  C 0.894097222222222 0.165190735694822  1.36111111111111 0  1.9375 0  C 2.51388888888889 0  2.97569444444444 0.165190735694822  3.32291666666667 0.495572207084469  Z M 14.9166666666667 5.79870572207084  C 15.6388888888889 6.57186648501362  16 7.70435967302452  16 9.19618528610354  L 16 15  L 12.5729166666667 15  L 12.5729166666667 9.58446866485014  C 12.5729166666667 8.86920980926431  12.4322916666667 8.30892370572207  12.1510416666667 7.90361035422343  C 11.8697916666667 7.49829700272479  11.4305555555556 7.29564032697548  10.8333333333333 7.29564032697548  C 10.3958333333333 7.29564032697548  10.0295138888889 7.41314713896458  9.734375 7.64816076294278  C 9.43923611111111 7.88317438692098  9.21875 8.17438692098093  9.07291666666667 8.52179836512262  C 8.99652777777778 8.72615803814714  8.95833333333333 9.00204359673025  8.95833333333333 9.34945504087194  L 8.95833333333333 15  L 5.53125 15  C 5.54513888888889 12.2820163487738  5.55208333333333 10.0783378746594  5.55208333333333 8.38896457765668  C 5.55208333333333 6.69959128065395  5.54861111111111 5.69141689373297  5.54166666666667 5.36444141689373  L 5.53125 4.87397820163488  L 8.95833333333333 4.87397820163488  L 8.95833333333333 6.34536784741144  L 8.9375 6.34536784741144  C 9.07638888888889 6.12738419618529  9.21875 5.9366485013624  9.36458333333333 5.77316076294278  C 9.51041666666667 5.60967302452316  9.70659722222222 5.43256130790191  9.953125 5.24182561307902  C 10.1996527777778 5.05108991825613  10.5017361111111 4.90292915531335  10.859375 4.79734332425068  C 11.2170138888889 4.69175749318801  11.6145833333333 4.63896457765668  12.0520833333333 4.63896457765668  C 13.2395833333333 4.63896457765668  14.1944444444444 5.02554495912806  14.9166666666667 5.79870572207084  Z " fill-rule="nonzero" fill="#ffffff" stroke="none" transform="matrix(1 0 0 1 11 11 )" />
  </g>
</svg>