<svg height='100px' width='100px'  fill="#ffffff" xmlns="http://www.w3.org/2000/svg" xmlns:xlink="http://www.w3.org/1999/xlink" viewBox="0 0 32 32" version="1.1" xml:space="preserve" style="" x="0px" y="0px" fill-rule="evenodd" clip-rule="evenodd" stroke-linejoin="round" stroke-miterlimit="1.41421"><g transform="matrix(1,0,0,1,-64,-320)"><g transform="matrix(1,0,0,1,64,320)"><rect x="0" y="0" width="32" height="32" style="" fill="none"></rect><g transform="matrix(1,0,0,1,-114,0)"><path d="M117.414,26L126.008,17.406C126.447,17.797 126.939,18.124 127.474,18.373C128.132,18.678 128.845,18.862 129.569,18.914C130.434,18.976 131.31,18.849 132.121,18.543C132.811,18.282 133.442,17.894 133.992,17.407L142.586,26L117.414,26ZM124.586,16L116,24.586L116,7.414L124.586,16ZM144,7.444L144,24.586L135.433,16.019C138.325,13.197 141.16,10.318 144,7.444ZM142.586,6L132.831,15.755C132.449,16.132 132.003,16.434 131.506,16.636C130.502,17.043 129.348,17.023 128.36,16.579C127.948,16.394 127.575,16.138 127.246,15.83C127.097,15.686 126.947,15.542 126.798,15.398C126.786,15.382 126.774,15.366 126.76,15.351C126.706,15.287 126.644,15.23 126.575,15.182C123.464,12.167 120.42,9.083 117.376,6L142.586,6Z"></path></g></g></g></svg>