<?xml version="1.0" encoding="utf-8"?>
<!-- Generator: Adobe Illustrator 25.2.0, SVG Export Plug-In . SVG Version: 6.00 Build 0)  -->
<svg version="1.1" id="Layer_1" xmlns="http://www.w3.org/2000/svg" xmlns:xlink="http://www.w3.org/1999/xlink" x="0px" y="0px"
	 viewBox="0 0 100 100" style="enable-background:new 0 0 100 100;" xml:space="preserve">
<style type="text/css">
	.st0{fill-rule:evenodd;clip-rule:evenodd;fill:#333333;}
	.st1{fill-rule:evenodd;clip-rule:evenodd;fill:#AF0000;}
	.st2{fill:none;}
</style>
<g>
	<path class="st0" d="M61.9,20.2H29.3v26.5c0,0.8-0.6,1.4-1.4,1.4c-0.8,0-1.4-0.6-1.4-1.4v-28c0-0.8,0.6-1.4,1.4-1.4h35
		c0.4,0,0.8,0.2,1,0.4l9.3,9.3c0.3,0.3,0.4,0.6,0.4,1l0,18.6c0,0.8-0.6,1.4-1.4,1.4c-0.8,0-1.4-0.6-1.4-1.4V29.1h-3.2
		c-1.5,0-3-0.6-4-1.7c-1-1-1.7-2.4-1.7-4L61.9,20.2L61.9,20.2z M29.3,79.8h41.4v-7.5c0-0.8,0.6-1.4,1.4-1.4c0.8,0,1.4,0.6,1.4,1.4
		v8.9c0,0.8-0.6,1.4-1.4,1.4H27.8c-0.8,0-1.4-0.6-1.4-1.4v-8.9c0-0.8,0.6-1.4,1.4-1.4c0.8,0,1.4,0.6,1.4,1.4L29.3,79.8L29.3,79.8z"
		/>
	<polygon class="st0" points="36.1,33.9 63.9,33.9 63.9,36.3 36.1,36.3 	"/>
	<polygon class="st0" points="36.1,39.6 63.9,39.6 63.9,42 36.1,42 	"/>
	<polygon class="st0" points="36.1,28.2 55.8,28.2 55.8,30.6 36.1,30.6 	"/>
	<path class="st1" d="M34,65.6V53.4h3.9c1.5,0,2.5,0.1,2.9,0.2c0.7,0.2,1.3,0.6,1.8,1.2c0.5,0.6,0.7,1.4,0.7,2.4
		c0,0.7-0.1,1.4-0.4,1.9c-0.3,0.5-0.6,0.9-1,1.2c-0.4,0.3-0.8,0.5-1.3,0.6C40,60.9,39.2,61,38.1,61h-1.6v4.6L34,65.6L34,65.6z
		 M45.3,53.4h4.5c1,0,1.8,0.1,2.3,0.2c0.7,0.2,1.3,0.6,1.8,1.1c0.5,0.5,0.9,1.2,1.2,2c0.3,0.8,0.4,1.7,0.4,2.9c0,1-0.1,1.9-0.4,2.6
		c-0.3,0.9-0.7,1.6-1.3,2.2c-0.4,0.4-1,0.7-1.7,1c-0.5,0.2-1.3,0.3-2.2,0.3h-4.6L45.3,53.4L45.3,53.4z M57.7,65.6V53.4H66v2.1h-5.9
		v2.9h5.1v2.1h-5.1v5.2L57.7,65.6L57.7,65.6z M29.3,73.2h41.4h2.9h4.8c0.5,0,1-0.4,1-1V46.8c0-0.5-0.4-1-1-1h-4.8h-2.9H29.3h-2.9
		h-4.8c-0.5,0-1,0.4-1,1v25.5c0,0.5,0.4,1,1,1h4.8H29.3z"/>
	<path class="st1" d="M36.5,55.5v3.5h1.3c1,0,1.6-0.1,1.9-0.2c0.3-0.1,0.6-0.3,0.8-0.6c0.2-0.3,0.3-0.6,0.3-0.9
		c0-0.4-0.1-0.8-0.4-1.1c-0.3-0.3-0.6-0.5-1-0.5c-0.3-0.1-0.9-0.1-1.8-0.1C37.6,55.5,36.5,55.5,36.5,55.5z"/>
	<path class="st1" d="M47.8,55.5v8.1h1.8c0.7,0,1.2,0,1.5-0.1c0.4-0.1,0.7-0.3,1-0.5c0.3-0.2,0.5-0.6,0.6-1.2
		c0.2-0.5,0.2-1.3,0.2-2.2c0-0.9-0.1-1.7-0.2-2.2c-0.2-0.5-0.4-0.9-0.7-1.2c-0.3-0.3-0.7-0.5-1.1-0.6c-0.3-0.1-1-0.1-2-0.1
		L47.8,55.5L47.8,55.5z"/>
</g>
<rect class="st2" width="100" height="100"/>
</svg>
