<?xml version="1.0" encoding="utf-8"?>
<svg version="1.1" xmlns:xlink="http://www.w3.org/1999/xlink" width="15px" height="25px" xmlns="http://www.w3.org/2000/svg">
  <g transform="matrix(1 0 0 1 0 -1381 )">
    <path d="M 14.0241909120628 22.3446893787574  C 14.187643020595 22.5116900467601  14.2693690748611 22.7037408149633  14.2693690748611 22.9208416833668  C 14.2693690748611 23.1379425517702  14.187643020595 23.3299933199732  14.0241909120628 23.4969939879759  L 12.7983000980713 24.749498997996  C 12.6348479895391 24.9164996659987  12.446878064727 25  12.2343903236352 25  C 12.0219025825433 25  11.8339326577313 24.9164996659987  11.6704805491991 24.749498997996  L 0.2451781627983 13.0761523046092  C 0.0817260542661006 12.9091516366065  0 12.7171008684035  0 12.5  C 0 12.2828991315965  0.0817260542661006 12.0908483633934  0.2451781627983 11.9238476953908  L 11.6704805491991 0.250501002004043  C 11.8339326577313 0.0835003340013475  12.0219025825433 0  12.2343903236352 0  C 12.446878064727 0  12.6348479895391 0.0835003340013475  12.7983000980713 0.250501002004043  L 14.0241909120628 1.50300601202407  C 14.187643020595 1.67000668002677  14.2693690748611 1.86205744822976  14.2693690748611 2.07915831663322  C 14.2693690748611 2.29625918503669  14.187643020595 2.48830995323986  14.0241909120628 2.65531062124256  L 8.31245383876759 8.49105000240816  L 4.38868911408957 12.5  L 14.0241909120628 22.3446893787574  Z " fill-rule="nonzero" fill="#2379a4" stroke="none" transform="matrix(1 0 0 1 0 1381 )" />
  </g>
</svg>