<?xml version="1.0" encoding="utf-8"?>
<svg version="1.1" xmlns:xlink="http://www.w3.org/1999/xlink" width="20px" height="15px" xmlns="http://www.w3.org/2000/svg">
  <g transform="matrix(1 0 0 1 -9 -12 )">
    <path d="M 7.93756967670011 4.27380952380952  L 7.93756967670011 10.2619047619048  L 13.3333333333333 7.28571428571429  L 7.93756967670011 4.27380952380952  Z M 3.01003344481605 0.214285714285714  C 4.87551096246748 0.0714285714285712  7.20549981419547 0  10 0  C 11.2486064659978 0  12.4544778892605 0.0178571428571428  13.6176142697882 0.0535714285714284  C 14.7807506503159 0.089285714285714  15.6335934596804 0.126984126984126  16.1761426978818 0.166666666666666  L 16.9899665551839 0.214285714285714  C 16.9973987365292 0.214285714285714  17.0605722779636 0.220238095238094  17.1794871794872 0.232142857142856  C 17.2984020810108 0.24404761904762  17.3838721664809 0.255952380952382  17.4358974358974 0.267857142857144  C 17.487922705314 0.279761904761905  17.5752508361204 0.297619047619048  17.6978818283166 0.321428571428572  C 17.8205128205128 0.345238095238096  17.9264214046823 0.376984126984125  18.015607580825 0.416666666666667  C 18.1047937569677 0.456349206349205  18.2088442958008 0.507936507936506  18.3277591973244 0.571428571428571  C 18.446674098848 0.634920634920633  18.561872909699 0.712301587301587  18.6733556298774 0.803571428571429  C 18.7848383500557 0.894841269841268  18.8926049795615 1  18.9966555183947 1.11904761904762  C 19.041248606466 1.16666666666667  19.0988480118915 1.24007936507936  19.1694537346711 1.33928571428571  C 19.2400594574508 1.43849206349206  19.3478260869565 1.67063492063492  19.4927536231884 2.03571428571429  C 19.6376811594203 2.40079365079365  19.7361575622445 2.8015873015873  19.7881828316611 3.23809523809524  C 19.8476402824229 3.74603174603175  19.8940914158305 4.28769841269841  19.9275362318841 4.86309523809524  C 19.9609810479376 5.43849206349206  19.9814195466369 5.88888888888889  19.9888517279822 6.21428571428571  L 19.9888517279822 6.69047619047619  L 19.9888517279822 8.30952380952381  C 19.9962839093274 9.46031746031746  19.9293942772204 10.6111111111111  19.7881828316611 11.7619047619048  C 19.7361575622445 12.1984126984127  19.6432552954292 12.593253968254  19.5094760312152 12.9464285714286  C 19.3756967670011 13.2996031746032  19.2567818654775 13.5436507936508  19.1527313266444 13.6785714285714  L 18.9966555183947 13.8809523809524  C 18.8926049795615 14  18.7848383500557 14.1051587301587  18.6733556298774 14.1964285714286  C 18.561872909699 14.2876984126984  18.446674098848 14.3630952380952  18.3277591973244 14.422619047619  C 18.2088442958008 14.4821428571429  18.1047937569677 14.531746031746  18.015607580825 14.5714285714286  C 17.9264214046823 14.6111111111111  17.8205128205128 14.6428571428571  17.6978818283166 14.6666666666667  C 17.5752508361204 14.6904761904762  17.4860646599777 14.7083333333333  17.4303232998885 14.7202380952381  C 17.3745819397993 14.7321428571429  17.2891118543292 14.7440476190476  17.1739130434783 14.7559523809524  C 17.0587142326273 14.7678571428571  16.9973987365292 14.7738095238095  16.9899665551839 14.7738095238095  C 15.1244890375325 14.9246031746032  12.7945001858045 15  10 15  C 8.46153846153846 14.984126984127  7.1256038647343 14.9583333333333  5.99219620958751 14.922619047619  C 4.85878855444073 14.8869047619048  4.11371237458194 14.8571428571429  3.75696767001115 14.8333333333333  L 3.21070234113712 14.7857142857143  L 2.80936454849498 14.7380952380952  C 2.54180602006689 14.6984126984127  2.33927907840951 14.6587301587302  2.20178372352285 14.6190476190476  C 2.06428836863619 14.5793650793651  1.87476774433296 14.4960317460317  1.63322185061315 14.3690476190476  C 1.39167595689335 14.2420634920635  1.18171683389075 14.0793650793651  1.00334448160535 13.8809523809524  C 0.958751393534002 13.8333333333333  0.90115198810851 13.7599206349206  0.830546265328874 13.6607142857143  C 0.759940542549238 13.5615079365079  0.652173913043478 13.3293650793651  0.507246376811594 12.9642857142857  C 0.36231884057971 12.5992063492063  0.263842437755481 12.1984126984127  0.211817168338907 11.7619047619048  C 0.152359717577109 11.2539682539683  0.105908584169454 10.7123015873016  0.072463768115942 10.1369047619048  C 0.0390189520624303 9.56150793650793  0.0185804533630621 9.11111111111111  0.0111482720178372 8.78571428571428  L 0.0111482720178372 8.30952380952381  L 0.0111482720178372 6.69047619047619  C 0.00371609067261241 5.53968253968254  0.0706057227796358 4.38888888888889  0.211817168338907 3.23809523809524  C 0.263842437755481 2.8015873015873  0.356744704570792 2.40674603174603  0.490523968784838 2.05357142857143  C 0.624303232998885 1.70039682539682  0.743218134522482 1.45634920634921  0.84726867335563 1.32142857142857  L 1.00334448160535 1.11904761904762  C 1.1073950204385 1  1.21516164994426 0.894841269841268  1.32664437012263 0.803571428571429  C 1.438127090301 0.712301587301587  1.55332590115199 0.634920634920633  1.67224080267559 0.571428571428571  C 1.79115570419918 0.507936507936506  1.89520624303233 0.456349206349205  1.98439241917503 0.416666666666667  C 2.07357859531773 0.376984126984125  2.17948717948718 0.345238095238096  2.30211817168339 0.321428571428572  C 2.4247491638796 0.297619047619048  2.51207729468599 0.279761904761905  2.56410256410256 0.267857142857144  C 2.61612783351914 0.255952380952382  2.70159791898922 0.24404761904762  2.82051282051282 0.232142857142856  C 2.93942772203642 0.220238095238094  3.00260126347083 0.214285714285714  3.01003344481605 0.214285714285714  Z " fill-rule="nonzero" fill="#ff0000" stroke="none" transform="matrix(1 0 0 1 9 12 )" />
  </g>
</svg>