<?xml version="1.0" encoding="utf-8"?>
<svg version="1.1" xmlns:xlink="http://www.w3.org/1999/xlink" width="19px" height="16px" xmlns="http://www.w3.org/2000/svg">
  <g transform="matrix(1 0 0 1 -10 -11 )">
    <path d="M 16.757614213198 2.525  C 17.505076142132 2.44166666666667  18.252538071066 2.23333333333333  19 1.9  C 18.4615059221658 2.71666666666667  17.8104906937394 3.4125  17.0469543147208 3.9875  C 17.0549915397631 4.10416666666667  17.0590101522843 4.27916666666667  17.0590101522843 4.5125  C 17.0590101522843 5.59583333333333  16.9063028764805 6.67708333333333  16.6008883248731 7.75625  C 16.2954737732657 8.83541666666667  15.8313240270728 9.87083333333333  15.2084390862944 10.8625  C 14.5855541455161 11.8541666666667  13.8441201353638 12.73125  12.9841370558376 13.49375  C 12.1241539763113 14.25625  11.0873519458545 14.8645833333333  9.87373096446701 15.31875  C 8.66010998307953 15.7729166666667  7.36209813874789 16  5.97969543147208 16  C 3.80160744500846 16  1.80837563451777 15.3958333333333  0 14.1875  C 0.281302876480542 14.2208333333333  0.594754653130288 14.2375  0.940355329949239 14.2375  C 2.74873096446701 14.2375  4.36019458544839 13.6625  5.7747461928934 12.5125  C 4.93083756345178 12.4958333333333  4.17533840947547 12.2270833333333  3.50824873096447 11.70625  C 2.84115905245347 11.1854166666667  2.3830372250423 10.5208333333333  2.13388324873096 9.7125  C 2.3991116751269 9.75416666666667  2.64424703891709 9.775  2.86928934010152 9.775  C 3.21489001692047 9.775  3.55647208121827 9.72916666666667  3.89403553299492 9.6375  C 2.99386632825719 9.44583333333333  2.24841370558376 8.98125  1.65767766497462 8.24375  C 1.06694162436548 7.50625  0.771573604060914 6.65  0.771573604060914 5.675  L 0.771573604060914 5.625  C 1.31810490693739 5.94166666666667  1.90482233502538 6.1125  2.53172588832487 6.1375  C 2.00126903553299 5.77083333333333  1.57931472081218 5.29166666666667  1.26586294416244 4.7  C 0.95241116751269 4.10833333333333  0.795685279187817 3.46666666666667  0.795685279187817 2.775  C 0.795685279187817 2.04166666666667  0.972504230118443 1.3625  1.3261421319797 0.737500000000001  C 2.29864636209814 1.97916666666667  3.48212774957699 2.97291666666667  4.87658629441624 3.71875  C 6.2710448392555 4.46458333333333  7.76395939086294 4.87916666666667  9.35532994923858 4.9625  C 9.29103214890017 4.64583333333333  9.25888324873097 4.3375  9.25888324873097 4.0375  C 9.25888324873097 2.92083333333333  9.63864213197969 1.96875  10.3981598984772 1.18125  C 11.1576776649746 0.393750000000001  12.0759306260575 0  13.1529187817259 0  C 14.2781302876481 0  15.2265228426396 0.425000000000001  15.9980964467005 1.275  C 16.8741539763113 1.1  17.6979695431472 0.775  18.4695431472081 0.300000000000001  C 18.172165820643 1.25833333333333  17.6015228426396 2  16.757614213198 2.525  Z " fill-rule="nonzero" fill="#ffffff" stroke="none" transform="matrix(1 0 0 1 10 11 )" />
  </g>
</svg>