<?xml version="1.0" encoding="utf-8"?>
<svg version="1.1" xmlns:xlink="http://www.w3.org/1999/xlink" width="14px" height="19px" xmlns="http://www.w3.org/2000/svg">
  <g transform="matrix(1 0 0 1 -738 -2169 )">
    <path d="M 7 0.0136152000000038  C 6.856 0.0136152000000038  6.64 0.0856152000000066  6.532 0.193615200000011  L 0.412 5.59361519999999  C 0.0879999999999996 5.8456152  0.0879999999999996 6.31361520000002  0.34 6.60161519999997  C 0.592 6.88961519999998  1.06 6.92561519999998  1.348 6.67361520000003  L 6.28 2.31761519999998  L 6.28 17.2936152  C 6.28 17.6896152  6.604 18.0136152  7 18.0136152  C 7.396 18.0136152  7.72 17.6896152  7.72 17.2936152  L 7.72 2.31761519999998  L 12.652 6.67361520000003  C 12.94 6.96161519999998  13.408 6.88961520000004  13.66 6.56561520000002  C 13.912 6.27761520000001  13.912 5.8096152  13.588 5.59361519999999  L 7.468 0.193615200000011  C 7.324 0.0496152000000052  7.144 0.0136152000000038  7 0.0136152000000038  Z " fill-rule="nonzero" fill="#ffffff" stroke="none" transform="matrix(1 0 0 1 738 2169 )" />
  </g>
</svg>