<svg width="26" height="28" viewBox="0 0 26 28" fill="none" xmlns="http://www.w3.org/2000/svg">
<path d="M1 5H6H6.1C6.5 6.7 8.1 8 10 8C11.9 8 13.4 6.7 13.9 5H14H25C25.6 5 26 4.6 26 4C26 3.4 25.6 3 25 3H14H13.9C13.5 1.3 11.9 0 10 0C8.1 0 6.6 1.3 6.1 3H6H1C0.4 3 0 3.4 0 4C0 4.6 0.4 5 1 5ZM10 2C11.1 2 12 2.9 12 4C12 5.1 11.1 6 10 6C8.9 6 8 5.1 8 4C8 2.9 8.9 2 10 2Z" fill="white"/>
<path d="M1 15H13H13.1C13.5 16.7 15.1 18 17 18C18.9 18 20.4 16.7 20.9 15H21H25C25.6 15 26 14.6 26 14C26 13.4 25.6 13 25 13H21H20.9C20.5 11.3 18.9 10 17 10C15.1 10 13.6 11.3 13.1 13H13H1C0.4 13 0 13.4 0 14C0 14.6 0.4 15 1 15ZM17 12C18.1 12 19 12.9 19 14C19 15.1 18.1 16 17 16C15.9 16 15 15.1 15 14C15 12.9 15.9 12 17 12Z" fill="white"/>
<path d="M1 25H6H6.1C6.5 26.7 8.1 28 10 28C11.9 28 13.4 26.7 13.9 25H14H25C25.6 25 26 24.6 26 24C26 23.4 25.6 23 25 23H14H13.9C13.5 21.3 11.9 20 10 20C8.1 20 6.6 21.3 6.1 23H6H1C0.4 23 0 23.4 0 24C0 24.6 0.4 25 1 25ZM10 22C11.1 22 12 22.9 12 24C12 25.1 11.1 26 10 26C8.9 26 8 25.1 8 24C8 22.9 8.9 22 10 22Z" fill="white"/>
</svg>
