<!-- Generator: Adobe Illustrator 25.2.1, SVG Export Plug-In  -->
<svg version="1.1" xmlns="http://www.w3.org/2000/svg" xmlns:xlink="http://www.w3.org/1999/xlink" x="0px" y="0px" width="40.5px"
	 height="40.5px" viewBox="0 0 40.5 40.5" style="overflow:visible;enable-background:new 0 0 40.5 40.5;" xml:space="preserve">
<style type="text/css">
	.st0{fill:#fff;}
</style>
<defs>
</defs>
<g>
	<path class="st0" d="M2.5,40.5c-0.6,0-1.3-0.2-1.8-0.7c-1-1-1-2.5,0-3.5L36.3,0.7c1-1,2.5-1,3.5,0c1,1,1,2.5,0,3.5L4.2,39.8
		C3.8,40.3,3.1,40.5,2.5,40.5z"/>
	<path class="st0" d="M38,40.5c-0.6,0-1.3-0.2-1.8-0.7L0.7,4.2c-1-1-1-2.5,0-3.5s2.5-1,3.5,0l35.6,35.6c1,1,1,2.5,0,3.5
		C39.3,40.3,38.7,40.5,38,40.5z"/>
</g>
</svg>
